<?xml version="1.0" encoding="UTF-8" standalone="no"?>
<!DOCTYPE svg PUBLIC "-//W3C//DTD SVG 1.1//EN"
 "http://www.w3.org/Graphics/SVG/1.1/DTD/svg11.dtd">
<!-- Generated by graphviz version 8.0.5 (20230430.1635)
 -->
<!-- Title: cubemx Pages: 1 -->
<svg width="891pt" height="359pt"
 viewBox="0.00 0.00 891.14 358.74" xmlns="http://www.w3.org/2000/svg" xmlns:xlink="http://www.w3.org/1999/xlink">
<g id="graph0" class="graph" transform="scale(1 1) rotate(0) translate(4 354.74)">
<title>cubemx</title>
<polygon fill="white" stroke="none" points="-4,4 -4,-354.74 887.14,-354.74 887.14,4 -4,4"/>
<g id="clust1" class="cluster">
<title>clusterLegend</title>
<polygon fill="none" stroke="black" points="8,-74.94 8,-342.74 544,-342.74 544,-74.94 8,-74.94"/>
<text text-anchor="middle" x="276" y="-325.44" font-family="Times,serif" font-size="14.00">Legend</text>
</g>
<!-- legendNode0 -->
<g id="node1" class="node">
<title>legendNode0</title>
<polygon fill="none" stroke="black" points="288.29,-274.29 291.14,-274.39 293.95,-274.54 296.72,-274.73 299.44,-274.98 302.1,-275.27 304.68,-275.61 307.18,-275.99 309.59,-276.42 311.89,-276.89 314.09,-277.4 316.17,-277.96 318.12,-278.55 319.94,-279.18 321.62,-279.85 323.17,-280.55 324.57,-281.28 325.82,-282.04 326.92,-282.84 327.87,-283.65 328.66,-284.49 329.31,-285.35 329.8,-286.23 330.15,-287.13 330.34,-288.04 330.4,-288.96 330.31,-289.89 330.08,-290.83 329.73,-291.77 329.24,-292.71 328.64,-293.66 327.92,-294.59 327.08,-295.52 326.14,-296.45 325.11,-297.36 323.98,-298.25 322.77,-299.13 321.48,-300 320.11,-300.84 318.68,-301.65 317.18,-302.44 315.63,-303.21 314.03,-303.94 312.39,-304.64 310.7,-305.3 308.98,-305.94 307.23,-306.53 305.46,-307.08 303.65,-307.6 301.83,-308.07 300,-308.5 298.14,-308.88 296.28,-309.22 294.4,-309.51 292.52,-309.75 290.63,-309.95 288.74,-310.1 286.85,-310.19 284.95,-310.24 283.05,-310.24 281.15,-310.19 279.26,-310.1 277.37,-309.95 275.48,-309.75 273.6,-309.51 271.72,-309.22 269.86,-308.88 268,-308.5 266.17,-308.07 264.35,-307.6 262.54,-307.08 260.77,-306.53 259.02,-305.94 257.3,-305.3 255.61,-304.64 253.97,-303.94 252.37,-303.21 250.82,-302.44 249.32,-301.65 247.89,-300.84 246.52,-300 245.23,-299.13 244.02,-298.25 242.89,-297.36 241.86,-296.45 240.92,-295.52 240.08,-294.59 239.36,-293.66 238.76,-292.71 238.27,-291.77 237.92,-290.83 237.69,-289.89 237.6,-288.96 237.66,-288.04 237.85,-287.13 238.2,-286.23 238.69,-285.35 239.34,-284.49 240.13,-283.65 241.08,-282.84 242.18,-282.04 243.43,-281.28 244.83,-280.55 246.38,-279.85 248.06,-279.18 249.88,-278.55 251.83,-277.96 253.91,-277.4 256.11,-276.89 258.41,-276.42 260.82,-275.99 263.32,-275.61 265.9,-275.27 268.56,-274.98 271.28,-274.73 274.05,-274.54 276.86,-274.39 279.71,-274.29 282.57,-274.24 285.43,-274.24 288.29,-274.29"/>
<text text-anchor="middle" x="284" y="-287.97" font-family="Times,serif" font-size="12.00">Executable</text>
</g>
<!-- legendNode1 -->
<g id="node2" class="node">
<title>legendNode1</title>
<polygon fill="none" stroke="black" points="126.42,-201.85 126.42,-216.76 93.96,-227.31 48.04,-227.31 15.58,-216.76 15.58,-201.85 48.04,-191.31 93.96,-191.31 126.42,-201.85"/>
<text text-anchor="middle" x="71" y="-205.03" font-family="Times,serif" font-size="12.00">Static Library</text>
</g>
<!-- legendNode0&#45;&gt;legendNode1 -->
<g id="edge1" class="edge">
<title>legendNode0&#45;&gt;legendNode1</title>
<path fill="none" stroke="black" d="M247.98,-278.77C217.69,-268.13 173.31,-252.23 135,-237.24 128.14,-234.56 120.9,-231.62 113.86,-228.7"/>
<polygon fill="black" stroke="black" points="115.33,-225.1 104.76,-224.47 112.63,-231.56 115.33,-225.1"/>
</g>
<!-- legendNode2 -->
<g id="node3" class="node">
<title>legendNode2</title>
<polygon fill="none" stroke="black" points="268.07,-201.85 268.07,-216.76 232.88,-227.31 183.12,-227.31 147.93,-216.76 147.93,-201.85 183.12,-191.31 232.88,-191.31 268.07,-201.85"/>
<polygon fill="none" stroke="black" points="272.07,-198.87 272.07,-219.74 233.47,-231.31 182.53,-231.31 143.93,-219.74 143.93,-198.87 182.53,-187.31 233.47,-187.31 272.07,-198.87"/>
<text text-anchor="middle" x="208" y="-205.03" font-family="Times,serif" font-size="12.00">Shared Library</text>
</g>
<!-- legendNode0&#45;&gt;legendNode2 -->
<g id="edge2" class="edge">
<title>legendNode0&#45;&gt;legendNode2</title>
<path fill="none" stroke="black" d="M268.62,-274.86C259.11,-264.73 246.61,-251.43 235.45,-239.54"/>
<polygon fill="black" stroke="black" points="238.37,-237.48 228.98,-232.58 233.27,-242.27 238.37,-237.48"/>
</g>
<!-- legendNode3 -->
<g id="node4" class="node">
<title>legendNode3</title>
<polygon fill="none" stroke="black" points="423.65,-201.85 423.65,-216.76 386.95,-227.31 335.05,-227.31 298.35,-216.76 298.35,-201.85 335.05,-191.31 386.95,-191.31 423.65,-201.85"/>
<polygon fill="none" stroke="black" points="427.65,-198.84 427.65,-219.78 387.51,-231.31 334.49,-231.31 294.35,-219.78 294.35,-198.84 334.49,-187.31 387.51,-187.31 427.65,-198.84"/>
<polygon fill="none" stroke="black" points="431.65,-195.83 431.65,-222.79 388.08,-235.31 333.92,-235.31 290.35,-222.79 290.35,-195.83 333.92,-183.31 388.08,-183.31 431.65,-195.83"/>
<text text-anchor="middle" x="361" y="-205.03" font-family="Times,serif" font-size="12.00">Module Library</text>
</g>
<!-- legendNode0&#45;&gt;legendNode3 -->
<!-- legendNode7 -->
<g id="node8" class="node">
<title>legendNode7</title>
<polygon fill="none" stroke="black" points="535.88,-227.31 450.12,-227.31 450.12,-191.31 535.88,-191.31 535.88,-227.31"/>
<text text-anchor="middle" x="493" y="-205.03" font-family="Times,serif" font-size="12.00">Custom Target</text>
</g>
<!-- legendNode0&#45;&gt;legendNode7 -->
<!-- legendNode4 -->
<g id="node5" class="node">
<title>legendNode4</title>
<polygon fill="none" stroke="black" points="166.08,-106.5 91,-118.94 15.92,-106.5 44.6,-86.37 137.4,-86.37 166.08,-106.5"/>
<text text-anchor="middle" x="91" y="-96.66" font-family="Times,serif" font-size="12.00">Interface Library</text>
</g>
<!-- legendNode1&#45;&gt;legendNode4 -->
<g id="edge4" class="edge">
<title>legendNode1&#45;&gt;legendNode4</title>
<path fill="none" stroke="black" stroke-dasharray="5,2" d="M74.21,-191.22C77.35,-174.53 82.18,-148.85 85.85,-129.31"/>
<polygon fill="black" stroke="black" points="89.45,-130.11 87.86,-119.63 82.57,-128.81 89.45,-130.11"/>
<text text-anchor="middle" x="107" y="-150.07" font-family="Times,serif" font-size="14.00">Interface</text>
</g>
<!-- legendNode5 -->
<g id="node6" class="node">
<title>legendNode5</title>
<polygon fill="none" stroke="black" points="309.98,-100.94 278.49,-118.94 215.51,-118.94 184.02,-100.94 215.51,-82.94 278.49,-82.94 309.98,-100.94"/>
<text text-anchor="middle" x="247" y="-96.66" font-family="Times,serif" font-size="12.00">Object Library</text>
</g>
<!-- legendNode2&#45;&gt;legendNode5 -->
<g id="edge5" class="edge">
<title>legendNode2&#45;&gt;legendNode5</title>
<path fill="none" stroke="black" stroke-dasharray="1,5" d="M215.8,-187.04C221.86,-170.49 230.33,-147.41 236.91,-129.45"/>
<polygon fill="black" stroke="black" points="240.48,-130.9 240.63,-120.3 233.9,-128.49 240.48,-130.9"/>
<text text-anchor="middle" x="249.12" y="-150.07" font-family="Times,serif" font-size="14.00">Private</text>
</g>
<!-- legendNode6 -->
<g id="node7" class="node">
<title>legendNode6</title>
<polygon fill="none" stroke="black" points="472.18,-96.93 457.89,-112.16 400,-118.94 342.11,-112.16 327.82,-96.93 367.88,-84.72 432.12,-84.72 472.18,-96.93"/>
<text text-anchor="middle" x="400" y="-96.66" font-family="Times,serif" font-size="12.00">Unknown Library</text>
</g>
<!-- legendNode3&#45;&gt;legendNode6 -->
<g id="edge6" class="edge">
<title>legendNode3&#45;&gt;legendNode6</title>
<path fill="none" stroke="black" d="M370.34,-182.83C376.33,-166.49 384.09,-145.32 390.18,-128.73"/>
<polygon fill="black" stroke="black" points="393.74,-130.18 393.89,-119.59 387.17,-127.78 393.74,-130.18"/>
</g>
<!-- node0 -->
<g id="node9" class="node">
<title>node0</title>
<polygon fill="none" stroke="black" points="639.22,-297.81 606,-310.24 572.78,-297.81 585.47,-277.68 626.53,-277.68 639.22,-297.81"/>
<text text-anchor="middle" x="606" y="-287.97" font-family="Times,serif" font-size="12.00">cmsis</text>
</g>
<!-- node1 -->
<g id="node10" class="node">
<title>node1</title>
<polygon fill="none" stroke="black" points="658.59,-205.3 648.18,-220.53 606,-227.31 563.82,-220.53 553.41,-205.3 582.59,-193.09 629.41,-193.09 658.59,-205.3"/>
<text text-anchor="middle" x="606" y="-205.03" font-family="Times,serif" font-size="12.00">CMSISDSP</text>
</g>
<!-- node0&#45;&gt;node1 -->
<g id="edge8" class="edge">
<title>node0&#45;&gt;node1</title>
<path fill="none" stroke="black" stroke-dasharray="5,2" d="M606,-277.51C606,-266.91 606,-251.87 606,-238.71"/>
<polygon fill="black" stroke="black" points="609.5,-238.78 606,-228.78 602.5,-238.78 609.5,-238.78"/>
</g>
<!-- node2 -->
<g id="node11" class="node">
<title>node2</title>
<polygon fill="none" stroke="black" points="819.08,-23.56 767,-36 714.92,-23.56 734.81,-3.44 799.19,-3.44 819.08,-23.56"/>
<text text-anchor="middle" x="767" y="-13.72" font-family="Times,serif" font-size="12.00">cmsis&#45;core</text>
</g>
<!-- node3 -->
<g id="node12" class="node">
<title>node3</title>
<polygon fill="none" stroke="black" points="857.89,-197.74 857.89,-220.88 804.65,-237.24 729.35,-237.24 676.11,-220.88 676.11,-197.74 729.35,-181.37 804.65,-181.37 857.89,-197.74"/>
<text text-anchor="middle" x="767" y="-212.16" font-family="Times,serif" font-size="12.00">cubemx</text>
<text text-anchor="middle" x="767" y="-197.91" font-family="Times,serif" font-size="12.00">(cubemx::framework)</text>
</g>
<!-- node4 -->
<g id="node13" class="node">
<title>node4</title>
<polygon fill="none" stroke="black" points="883.14,-89.36 883.14,-112.51 815.11,-128.87 718.89,-128.87 650.86,-112.51 650.86,-89.36 718.89,-73 815.11,-73 883.14,-89.36"/>
<text text-anchor="middle" x="767" y="-103.79" font-family="Times,serif" font-size="12.00">stm32f0xx_hal</text>
<text text-anchor="middle" x="767" y="-89.54" font-family="Times,serif" font-size="12.00">(stm32f0xx_hal::framework)</text>
</g>
<!-- node3&#45;&gt;node4 -->
<g id="edge10" class="edge">
<title>node3&#45;&gt;node4</title>
<path fill="none" stroke="black" d="M767,-180.91C767,-168.51 767,-153.63 767,-140.15"/>
<polygon fill="black" stroke="black" points="770.5,-140.24 767,-130.24 763.5,-140.24 770.5,-140.24"/>
</g>
<!-- node4&#45;&gt;node2 -->
<g id="edge9" class="edge">
<title>node4&#45;&gt;node2</title>
<path fill="none" stroke="black" stroke-dasharray="5,2" d="M767,-72.53C767,-64.43 767,-55.54 767,-47.38"/>
<polygon fill="black" stroke="black" points="770.5,-47.47 767,-37.47 763.5,-47.47 770.5,-47.47"/>
</g>
<!-- node5 -->
<g id="node14" class="node">
<title>node5</title>
<polygon fill="none" stroke="black" points="769.66,-274.29 771.42,-274.39 773.16,-274.54 774.88,-274.73 776.57,-274.98 778.21,-275.27 779.81,-275.61 781.36,-275.99 782.85,-276.42 784.28,-276.89 785.64,-277.4 786.93,-277.96 788.14,-278.55 789.26,-279.18 790.31,-279.85 791.26,-280.55 792.13,-281.28 792.91,-282.04 793.59,-282.84 794.18,-283.65 794.67,-284.49 795.07,-285.35 795.37,-286.23 795.59,-287.13 795.71,-288.04 795.74,-288.96 795.69,-289.89 795.55,-290.83 795.33,-291.77 795.03,-292.71 794.65,-293.66 794.21,-294.59 793.69,-295.52 793.11,-296.45 792.47,-297.36 791.77,-298.25 791.02,-299.13 790.22,-300 789.37,-300.84 788.48,-301.65 787.56,-302.44 786.6,-303.21 785.61,-303.94 784.59,-304.64 783.54,-305.3 782.48,-305.94 781.39,-306.53 780.29,-307.08 779.18,-307.6 778.05,-308.07 776.91,-308.5 775.76,-308.88 774.61,-309.22 773.45,-309.51 772.28,-309.75 771.11,-309.95 769.94,-310.1 768.76,-310.19 767.59,-310.24 766.41,-310.24 765.24,-310.19 764.06,-310.1 762.89,-309.95 761.72,-309.75 760.55,-309.51 759.39,-309.22 758.24,-308.88 757.09,-308.5 755.95,-308.07 754.82,-307.6 753.71,-307.08 752.61,-306.53 751.52,-305.94 750.46,-305.3 749.41,-304.64 748.39,-303.94 747.4,-303.21 746.44,-302.44 745.52,-301.65 744.63,-300.84 743.78,-300 742.98,-299.13 742.23,-298.25 741.53,-297.36 740.89,-296.45 740.31,-295.52 739.79,-294.59 739.35,-293.66 738.97,-292.71 738.67,-291.77 738.45,-290.83 738.31,-289.89 738.26,-288.96 738.29,-288.04 738.41,-287.13 738.63,-286.23 738.93,-285.35 739.33,-284.49 739.82,-283.65 740.41,-282.84 741.09,-282.04 741.87,-281.28 742.74,-280.55 743.69,-279.85 744.74,-279.18 745.86,-278.55 747.07,-277.96 748.36,-277.4 749.72,-276.89 751.15,-276.42 752.64,-275.99 754.19,-275.61 755.79,-275.27 757.43,-274.98 759.12,-274.73 760.84,-274.54 762.58,-274.39 764.34,-274.29 766.11,-274.24 767.89,-274.24 769.66,-274.29"/>
<text text-anchor="middle" x="767" y="-287.97" font-family="Times,serif" font-size="12.00">demo</text>
</g>
<!-- node5&#45;&gt;node3 -->
<g id="edge11" class="edge">
<title>node5&#45;&gt;node3</title>
<path fill="none" stroke="black" stroke-dasharray="1,5" d="M767,-274.08C767,-266.56 767,-257.41 767,-248.41"/>
<polygon fill="black" stroke="black" points="770.5,-248.64 767,-238.64 763.5,-248.64 770.5,-248.64"/>
</g>
<!-- node5&#45;&gt;node5 -->
<g id="edge12" class="edge">
<title>node5&#45;&gt;node5</title>
<path fill="none" stroke="black" d="M791.53,-298.92C803.33,-299.74 813.74,-297.52 813.74,-292.24 813.74,-289.38 810.67,-287.41 805.96,-286.34"/>
<polygon fill="black" stroke="black" points="806.56,-282.8 796.3,-285.41 805.95,-289.77 806.56,-282.8"/>
</g>
</g>
</svg>
